<?xml version="1.0" standalone="no"?>
<!DOCTYPE svg PUBLIC "-//W3C//DTD SVG 20010904//EN"
 "http://www.w3.org/TR/2001/REC-SVG-20010904/DTD/svg10.dtd">
<svg version="1.0" xmlns="http://www.w3.org/2000/svg"
 width="332.000000pt" height="332.000000pt" viewBox="0 0 332.000000 332.000000"
 preserveAspectRatio="xMidYMid meet">

<g transform="translate(0.000000,332.000000) scale(0.100000,-0.100000)"
fill="#000000" stroke="none">
<path d="M1440 3290 c-223 -31 -477 -125 -668 -246 -142 -91 -305 -239 -416
-379 -67 -84 -182 -280 -223 -383 -85 -209 -119 -419 -110 -681 9 -266 49
-426 166 -661 167 -337 407 -578 736 -740 239 -118 401 -158 662 -167 269 -9
477 27 700 121 503 212 864 661 975 1208 33 164 33 455 0 611 -98 458 -340
818 -715 1062 -168 109 -405 204 -602 240 -105 19 -408 28 -505 15z m406 -666
c214 -69 372 -221 440 -419 20 -61 28 -106 31 -190 6 -130 -10 -213 -62 -320
-32 -67 -61 -111 -224 -335 -136 -188 -241 -385 -331 -617 -17 -46 -35 -83
-40 -83 -4 0 -18 26 -31 58 -97 245 -259 526 -444 772 -124 164 -173 288 -182
455 -6 134 11 224 61 328 86 176 238 303 429 358 99 28 255 25 353 -7z"/>
<path d="M1597 2419 c-160 -22 -301 -144 -349 -302 -47 -156 -2 -323 117 -436
31 -29 85 -66 122 -84 125 -58 284 -47 405 29 62 39 126 113 161 184 30 62 32
71 32 180 0 109 -2 119 -32 183 -82 173 -265 272 -456 246z"/>
</g>
</svg>
