<?xml version="1.0" standalone="no"?>
<!DOCTYPE svg PUBLIC "-//W3C//DTD SVG 20010904//EN"
 "http://www.w3.org/TR/2001/REC-SVG-20010904/DTD/svg10.dtd">
<svg version="1.0" xmlns="http://www.w3.org/2000/svg"
 width="1755.000000pt" height="469.000000pt" viewBox="0 0 1755.000000 469.000000"
 preserveAspectRatio="xMidYMid meet">

<g transform="translate(0.000000,469.000000) scale(0.100000,-0.100000)"
fill="#000000" stroke="none">
<path d="M13004 4462 c-10 -7 -73 -138 -152 -317 -33 -75 -398 -876 -500
-1095 -90 -196 -175 -380 -362 -790 -114 -250 -224 -491 -245 -535 -29 -64
-242 -527 -496 -1082 -16 -35 -29 -65 -29 -68 0 -3 806 -5 1791 -5 1429 0
1790 3 1786 13 -3 6 -139 305 -302 662 -590 1288 -678 1481 -920 2015 -51 113
-125 272 -164 354 -39 82 -71 150 -71 151 0 3 -152 335 -230 500 -23 50 -51
113 -62 140 -26 60 -30 66 -44 57z m34 -1064 c11 -24 26 -59 35 -78 8 -19 29
-65 46 -102 17 -37 42 -96 57 -130 14 -35 39 -91 55 -126 16 -35 29 -65 29
-67 0 -2 14 -34 31 -72 35 -77 53 -118 124 -278 14 -33 30 -69 34 -80 11 -26
73 -165 133 -295 45 -98 69 -152 88 -199 18 -47 46 -110 105 -236 18 -38 40
-88 50 -110 10 -22 42 -89 70 -150 29 -60 63 -132 75 -160 28 -61 63 -139 101
-223 16 -34 29 -69 29 -76 0 -11 -33 -13 -172 -10 -95 2 -582 5 -1081 5 -703
1 -910 4 -913 14 -3 6 11 45 29 86 19 41 45 97 57 124 104 229 130 284 140
290 4 3 19 33 33 67 14 35 38 92 55 128 16 36 44 101 62 145 36 91 45 112 90
210 17 39 38 84 45 100 7 17 20 46 28 65 9 19 25 58 37 85 27 63 41 96 74 167
14 31 26 59 26 62 0 3 18 44 40 91 22 47 40 88 40 91 0 2 16 38 35 80 19 41
35 77 35 79 0 2 18 43 40 90 22 47 40 88 40 91 0 2 16 38 35 80 19 41 35 77
35 79 0 2 16 39 36 82 20 43 40 88 45 101 13 32 25 27 47 -20z"/>
<path d="M9187 4354 c-8 -16 -42 -101 -75 -189 -33 -88 -120 -313 -192 -500
-73 -187 -162 -421 -200 -520 -37 -99 -143 -376 -235 -615 -92 -239 -203 -529
-247 -645 -43 -115 -83 -214 -89 -219 -16 -17 -29 7 -84 151 -29 76 -115 296
-190 488 -339 864 -669 1712 -737 1895 -22 58 -46 112 -54 120 -27 27 -494 25
-494 -2 0 -11 109 -292 205 -528 35 -85 116 -288 180 -450 64 -162 142 -360
175 -440 80 -199 114 -283 571 -1427 220 -551 406 -1006 413 -1012 11 -9 56
99 224 536 116 302 252 654 302 783 50 129 113 296 142 370 78 205 271 707
335 868 31 80 61 141 67 139 6 -2 26 -41 45 -88 47 -116 338 -869 477 -1234
63 -165 133 -345 154 -400 22 -55 77 -199 124 -320 166 -433 254 -657 261
-663 3 -4 10 0 15 8 9 15 179 440 655 1635 488 1226 779 1951 833 2075 27 63
52 128 56 144 l7 28 -246 -4 c-198 -3 -248 -7 -259 -18 -7 -8 -39 -82 -71
-165 -31 -82 -92 -238 -135 -345 -43 -107 -99 -249 -124 -315 -43 -115 -134
-348 -356 -910 -56 -143 -139 -357 -185 -475 -129 -336 -164 -424 -175 -440
-18 -26 9 -92 -401 980 -104 272 -201 527 -215 565 -14 39 -52 138 -85 220
-33 83 -123 314 -201 515 -77 201 -148 381 -158 399 l-17 35 -16 -30z"/>
<path d="M1205 4344 c-11 -3 -56 -14 -100 -25 -333 -84 -543 -393 -627 -919
-11 -69 -23 -150 -28 -180 -17 -106 -30 -488 -30 -871 0 -419 12 -698 35 -824
8 -44 24 -138 36 -210 53 -328 203 -599 396 -712 120 -70 328 -106 500 -85
108 13 235 49 298 86 57 34 209 195 238 252 67 134 119 349 137 569 5 66 10
336 10 601 l0 481 -303 7 c-166 4 -353 4 -415 0 l-113 -7 3 -141 3 -141 250
-3 250 -2 -3 -403 c-2 -420 -11 -532 -53 -701 -31 -126 -102 -229 -183 -264
-110 -49 -234 -52 -359 -11 -58 19 -76 31 -127 86 -141 150 -212 403 -256 908
-21 246 -14 1168 10 1355 53 408 106 565 240 707 88 94 161 132 268 140 197
15 349 -106 423 -337 10 -30 21 -65 26 -78 5 -13 9 -31 9 -42 0 -26 16 -34 48
-22 104 39 239 96 250 104 27 23 11 97 -53 236 -49 106 -114 198 -192 273
-118 114 -261 169 -458 175 -60 1 -119 1 -130 -2z"/>
<path d="M16715 4332 l-80 -3 -74 -132 c-151 -272 -176 -315 -256 -452 -111
-189 -419 -727 -484 -846 -29 -53 -64 -109 -77 -125 l-24 -29 -30 35 c-17 19
-30 37 -30 41 0 8 -74 139 -280 494 -89 154 -204 354 -255 445 -51 91 -145
255 -208 365 l-116 200 -266 3 -265 2 30 -57 c16 -32 42 -78 56 -103 14 -25
53 -92 87 -150 204 -356 363 -632 429 -745 108 -187 314 -543 472 -816 l136
-236 0 -369 c0 -203 3 -574 7 -825 l6 -456 136 -5 c75 -3 177 -3 226 1 l90 6
5 826 c4 589 8 830 16 840 14 17 228 384 304 519 29 52 112 196 185 320 72
124 165 284 205 355 41 72 129 225 196 340 139 240 281 488 301 525 12 23 11
26 -10 32 -22 6 -287 7 -432 0z"/>
<path d="M2597 3128 c-4 -644 -7 -1485 -7 -1868 l0 -698 31 -6 c17 -3 278 -6
580 -6 l549 0 0 144 0 143 -149 7 c-82 4 -265 6 -407 5 -243 -1 -258 0 -263
18 -3 10 -5 348 -3 751 l3 732 399 0 400 0 0 145 0 145 -400 0 -400 0 2 683 3
682 405 6 c223 4 406 7 408 8 1 0 2 64 2 141 l0 140 -573 0 -574 0 -6 -1172z"/>
<path d="M4016 4269 c-3 -17 -6 -80 -6 -140 0 -94 2 -108 18 -112 9 -3 130 -5
268 -5 138 1 256 -2 262 -6 9 -5 12 -433 12 -1732 l0 -1724 165 0 165 0 0
1719 c0 1365 3 1721 13 1728 6 4 129 9 271 11 195 1 262 5 268 15 4 6 8 72 8
145 l0 132 -719 0 -718 0 -7 -31z"/>
<path d="M6086 4292 c-6 -10 -27 -116 -66 -332 -18 -96 -45 -238 -61 -315 -16
-77 -43 -216 -59 -308 -16 -92 -36 -193 -45 -225 -8 -31 -22 -100 -30 -152 -8
-52 -21 -129 -30 -170 -8 -41 -19 -97 -25 -125 -22 -117 -40 -199 -73 -345
-20 -85 -45 -218 -56 -295 -22 -144 -35 -216 -53 -295 -6 -25 -15 -65 -19 -90
-4 -25 -15 -79 -24 -120 -8 -41 -19 -97 -24 -125 -15 -85 -41 -205 -56 -264
-8 -31 -19 -87 -25 -126 -11 -75 -33 -196 -55 -310 -7 -38 -16 -87 -19 -107
l-5 -38 170 0 169 0 0 39 c0 21 4 51 10 67 5 16 16 76 25 133 8 57 22 127 31
155 8 28 25 123 38 211 l22 160 412 3 c384 2 412 1 420 -15 13 -26 38 -153 52
-258 6 -49 15 -107 20 -130 5 -22 14 -65 20 -95 5 -30 17 -93 26 -140 9 -47
18 -95 20 -107 4 -22 8 -23 128 -23 68 0 143 3 168 6 l45 6 -14 67 c-7 36 -22
116 -33 176 -11 61 -25 124 -30 140 -5 17 -23 109 -40 205 -16 96 -39 220 -51
275 -29 141 -59 283 -70 330 -16 71 -40 189 -49 242 -4 28 -10 56 -13 60 -3 5
-12 63 -21 129 -9 67 -30 179 -46 250 -52 218 -61 257 -70 311 -4 28 -11 56
-14 62 -4 5 -13 63 -22 127 -8 65 -18 122 -21 127 -8 13 -49 209 -67 317 -8
47 -21 114 -30 150 -25 107 -58 271 -67 336 -7 52 -60 344 -74 412 -5 22 -8
22 -160 22 -84 0 -156 -3 -159 -8z m187 -548 c4 -49 11 -138 15 -199 4 -60 11
-117 17 -125 5 -8 13 -55 17 -105 15 -188 43 -373 59 -390 5 -5 9 -30 9 -56 0
-26 7 -63 15 -82 8 -20 15 -58 15 -85 0 -26 4 -52 9 -57 5 -6 12 -35 14 -65
19 -198 25 -237 35 -257 7 -12 12 -38 12 -59 0 -47 29 -196 41 -208 5 -6 9
-32 9 -58 0 -27 7 -65 15 -85 8 -19 15 -59 15 -87 0 -29 4 -56 9 -62 5 -5 11
-40 13 -79 l3 -70 -347 -3 -348 -2 0 43 c0 24 7 66 15 93 8 27 15 63 15 79 0
17 6 66 14 110 8 44 20 121 27 170 6 50 18 113 26 142 9 35 12 71 7 111 -4 42
-2 66 7 83 7 13 17 56 21 94 4 39 11 106 16 150 5 44 14 90 20 102 7 12 12 48
12 80 0 33 4 63 10 69 9 9 23 96 40 254 23 206 29 250 36 262 5 7 12 63 17
123 19 278 20 281 60 266 19 -7 23 -19 30 -97z"/>
</g>
</svg>
