<?xml version="1.0" standalone="no"?>
<!DOCTYPE svg PUBLIC "-//W3C//DTD SVG 20010904//EN"
 "http://www.w3.org/TR/2001/REC-SVG-20010904/DTD/svg10.dtd">
<svg version="1.0" xmlns="http://www.w3.org/2000/svg"
 width="200.000000pt" height="200.000000pt" viewBox="0 0 200.000000 200.000000"
 preserveAspectRatio="xMidYMid meet">

<g transform="translate(0.000000,200.000000) scale(0.100000,-0.100000)"
fill="#000000" stroke="none">
<path d="M852 1979 c-212 -54 -400 -221 -467 -414 -66 -192 -52 -373 43 -560
25 -50 160 -250 233 -345 70 -91 231 -390 300 -557 19 -46 37 -83 40 -83 4 0
17 28 29 62 75 207 206 452 337 632 43 60 99 137 125 173 59 82 121 202 142
275 21 74 22 262 0 343 -59 230 -249 414 -490 475 -95 25 -195 24 -292 -1z
m253 -213 c174 -46 297 -180 327 -356 23 -134 -19 -266 -118 -370 -68 -71
-146 -113 -242 -130 -283 -51 -546 203 -505 488 37 258 294 434 538 368z"/>
</g>
</svg>
