<?xml version="1.0" standalone="no"?>
<!DOCTYPE svg PUBLIC "-//W3C//DTD SVG 20010904//EN"
 "http://www.w3.org/TR/2001/REC-SVG-20010904/DTD/svg10.dtd">
<svg version="1.0" xmlns="http://www.w3.org/2000/svg"
 width="332.000000pt" height="332.000000pt" viewBox="0 0 332.000000 332.000000"
 preserveAspectRatio="xMidYMid meet">

<g transform="translate(0.000000,332.000000) scale(0.100000,-0.100000)"
fill="#000000" stroke="none">
<path d="M1431 3280 c-93 -13 -254 -55 -346 -91 -523 -200 -898 -628 -1021
-1164 -36 -160 -45 -438 -20 -615 66 -454 369 -901 773 -1144 342 -205 766
-278 1151 -200 652 133 1141 622 1284 1284 19 90 22 135 23 315 0 184 -3 223
-23 314 -150 669 -621 1140 -1281 1282 -109 23 -429 34 -540 19z m331 -652
c13 -11 56 -81 178 -293 10 -16 70 -120 135 -230 65 -110 125 -213 135 -230 9
-16 53 -91 97 -165 341 -576 317 -530 321 -637 3 -64 0 -98 -8 -108 -11 -13
-140 -15 -969 -15 -731 0 -960 3 -969 12 -8 8 -12 47 -12 112 0 78 3 103 17
118 9 10 30 46 47 80 18 35 72 131 120 213 145 245 178 301 288 490 58 99 160
275 227 390 68 116 138 225 157 243 33 31 35 32 127 32 60 0 99 -5 109 -12z"/>
<path d="M1623 2278 c-4 -7 -17 -33 -29 -59 -24 -51 -244 -418 -469 -784 -107
-173 -145 -241 -145 -258 0 -10 11 -19 27 -23 43 -11 1296 6 1310 18 22 18 15
36 -45 137 -32 53 -174 290 -316 526 -142 237 -265 436 -274 443 -9 6 -24 12
-33 12 -10 0 -21 -6 -26 -12z"/>
</g>
</svg>
