<?xml version="1.0" standalone="no"?>
<!DOCTYPE svg PUBLIC "-//W3C//DTD SVG 20010904//EN"
 "http://www.w3.org/TR/2001/REC-SVG-20010904/DTD/svg10.dtd">
<svg version="1.0" xmlns="http://www.w3.org/2000/svg"
 width="366.000000pt" height="366.000000pt" viewBox="0 0 366.000000 366.000000"
 preserveAspectRatio="xMidYMid meet">

<g transform="translate(0.000000,366.000000) scale(0.100000,-0.100000)"
fill="#000000" stroke="none">
<path d="M1625 3524 c-81 -11 -175 -28 -225 -41 -30 -8 -68 -18 -85 -23 -53
-14 -238 -91 -295 -123 -323 -181 -575 -447 -728 -767 -267 -559 -198 -1256
175 -1742 108 -142 279 -303 428 -403 298 -200 725 -305 1079 -265 116 13 207
29 276 47 30 8 69 18 85 22 113 29 345 146 477 241 114 81 337 313 416 433 71
106 172 300 172 329 0 8 4 18 8 24 5 5 14 29 21 54 8 25 17 56 22 70 39 115
63 343 56 530 -10 271 -56 460 -168 685 -179 358 -530 685 -874 815 -11 4 -31
12 -45 18 -49 20 -136 46 -210 62 -30 7 -71 17 -90 22 -36 9 -443 20 -495 12z
m365 -103 c241 -26 508 -125 730 -273 135 -89 316 -272 409 -411 190 -288 275
-564 275 -892 0 -269 -44 -456 -169 -710 -172 -348 -478 -627 -845 -768 -156
-60 -228 -77 -435 -103 -109 -13 -148 -14 -240 -4 -285 30 -503 101 -735 242
-337 204 -601 570 -699 968 -25 101 -51 291 -51 369 0 72 25 272 44 354 81
349 299 692 569 895 238 178 438 267 722 321 112 21 291 26 425 12z"/>
<path d="M1272 2707 c-12 -13 -22 -31 -22 -41 0 -10 72 -88 160 -173 88 -86
160 -161 160 -168 0 -13 -32 -45 -45 -45 -4 0 -79 71 -167 157 -87 87 -165
161 -172 165 -8 4 -26 -6 -47 -28 l-34 -35 168 -166 c92 -91 167 -171 167
-177 0 -16 -21 -36 -38 -36 -8 0 -90 72 -184 161 l-169 161 -32 -25 c-18 -13
-33 -31 -35 -39 -1 -7 44 -58 100 -113 57 -54 146 -141 199 -192 58 -56 104
-93 117 -93 11 0 45 23 76 51 l56 51 79 -74 c43 -40 79 -80 80 -89 1 -9 -12
-27 -28 -40 -74 -61 -587 -564 -601 -588 -13 -24 13 -62 92 -135 47 -42 81
-66 97 -66 28 0 54 23 318 282 185 181 233 218 285 218 14 0 54 -31 112 -88
382 -368 430 -412 455 -412 19 0 50 24 118 93 51 50 96 95 99 99 19 21 -26 73
-231 268 -123 118 -225 220 -225 226 0 7 20 28 46 49 202 166 270 313 281 605
4 132 -11 183 -57 188 -29 3 -15 15 -393 -352 -143 -138 -265 -255 -273 -259
-11 -6 -38 13 -97 72 l-82 80 53 53 c28 30 52 63 52 74 0 13 -58 78 -162 181
-256 252 -239 240 -276 200z m1126 -309 c-7 -124 -61 -268 -131 -348 -43 -50
-131 -124 -215 -181 -82 -57 -259 -149 -284 -149 -25 0 -80 50 -76 69 4 21
678 680 696 680 11 1 13 -16 10 -71z m-249 -711 c253 -239 351 -336 351 -344
0 -5 -18 -26 -39 -47 l-40 -39 -31 27 c-75 63 -410 392 -410 402 0 12 76 63
94 64 5 0 39 -28 75 -63z m-522 1 c28 -26 30 -52 4 -70 -10 -7 -98 -91 -196
-185 -98 -95 -183 -173 -190 -173 -11 0 -35 22 -48 46 -6 10 101 120 318 327
44 42 82 77 84 77 3 0 15 -10 28 -22z"/>
</g>
</svg>
