<?xml version="1.0" standalone="no"?>
<!DOCTYPE svg PUBLIC "-//W3C//DTD SVG 20010904//EN"
 "http://www.w3.org/TR/2001/REC-SVG-20010904/DTD/svg10.dtd">
<svg version="1.0" xmlns="http://www.w3.org/2000/svg"
 width="332.000000pt" height="334.000000pt" viewBox="0 0 332.000000 334.000000"
 preserveAspectRatio="xMidYMid meet">

<g transform="translate(0.000000,334.000000) scale(0.100000,-0.100000)"
fill="#000000" stroke="none">
<path d="M1390 3290 c-362 -66 -638 -208 -886 -455 -225 -224 -373 -495 -451
-825 -27 -111 -26 -528 1 -650 97 -444 368 -831 741 -1060 353 -217 796 -295
1194 -209 719 156 1254 785 1288 1514 22 478 -162 932 -513 1263 -218 208
-488 347 -799 412 -148 32 -432 37 -575 10z m-204 -757 c177 -166 354 -349
354 -367 0 -11 -24 -44 -52 -74 l-53 -53 82 -80 c59 -59 86 -78 97 -72 8 4
130 121 273 258 368 357 368 357 395 353 44 -6 59 -58 55 -188 -11 -293 -79
-439 -283 -606 -24 -20 -44 -42 -44 -49 0 -7 21 -32 48 -56 179 -163 412 -398
412 -415 0 -31 -188 -214 -221 -214 -25 0 -73 44 -455 412 -58 57 -98 88 -112
88 -52 0 -101 -39 -332 -264 -193 -188 -247 -236 -269 -236 -30 0 -162 114
-186 160 -13 25 -13 30 4 51 34 43 528 524 591 577 17 14 30 32 29 41 -1 9
-37 49 -80 89 l-79 74 -56 -51 c-31 -28 -65 -51 -76 -51 -13 0 -59 37 -117 93
-53 51 -142 138 -199 192 -56 55 -101 106 -100 113 2 8 17 26 35 39 l32 25
169 -161 c94 -89 176 -161 184 -161 17 0 38 20 38 36 0 6 -75 86 -167 177
l-168 166 34 35 c21 22 39 32 47 28 7 -4 85 -78 172 -165 88 -86 163 -157 167
-157 13 0 45 32 45 45 0 7 -72 82 -160 168 -88 86 -160 164 -160 174 0 19 38
63 55 63 7 0 29 -16 51 -37z"/>
<path d="M2050 2157 c-85 -84 -239 -234 -342 -334 -104 -100 -188 -189 -188
-197 0 -18 56 -66 78 -66 25 0 202 92 284 149 83 56 185 142 221 186 35 43 83
141 103 210 23 80 31 205 12 205 -7 0 -83 -69 -168 -153z"/>
<path d="M1853 1564 c-24 -14 -43 -31 -43 -37 0 -12 331 -337 410 -403 l31
-27 40 39 c21 21 39 43 39 50 0 6 -19 29 -42 50 -24 21 -117 109 -208 196 -91
87 -169 158 -175 158 -5 0 -29 -12 -52 -26z"/>
<path d="M1230 1363 c-107 -103 -198 -193 -202 -199 -9 -14 28 -64 46 -64 8 0
93 78 191 173 98 94 186 178 196 185 26 18 24 44 -4 70 -13 12 -25 22 -28 22
-2 0 -92 -84 -199 -187z"/>
</g>
</svg>
