<?xml version="1.0" standalone="no"?>
<!DOCTYPE svg PUBLIC "-//W3C//DTD SVG 20010904//EN"
 "http://www.w3.org/TR/2001/REC-SVG-20010904/DTD/svg10.dtd">
<svg version="1.0" xmlns="http://www.w3.org/2000/svg"
 width="45.000000pt" height="43.000000pt" viewBox="0 0 45.000000 43.000000"
 preserveAspectRatio="xMidYMid meet">

<g transform="translate(0.000000,43.000000) scale(0.100000,-0.100000)"
fill="#000000" stroke="none">
<path d="M87 413 c-4 -3 12 -26 33 -51 52 -59 43 -67 -15 -13 -24 22 -47 41
-50 41 -13 0 -2 -21 36 -64 48 -55 43 -59 -14 -11 -69 60 -82 39 -15 -26 33
-32 48 -39 68 -36 15 3 32 -1 43 -11 16 -14 12 -20 -64 -99 -80 -81 -81 -84
-64 -103 10 -11 24 -20 31 -20 8 0 43 27 80 60 36 33 70 60 75 60 5 0 39 -27
74 -60 35 -33 71 -60 78 -60 7 0 24 12 38 26 l24 26 -63 57 -63 57 22 19 c12
11 30 38 40 60 19 41 26 135 10 135 -5 0 -46 -34 -90 -76 -79 -74 -82 -76
-101 -59 -11 10 -17 22 -14 27 12 20 -8 57 -50 91 -24 20 -46 34 -49 30z m273
-127 c-14 -29 -38 -56 -73 -80 -50 -34 -87 -46 -87 -27 0 16 174 175 178 163
2 -7 -6 -32 -18 -56z m-11 -170 c70 -71 49 -84 -24 -15 -48 45 -61 69 -37 69
4 0 32 -24 61 -54z m-169 36 c0 -14 -99 -106 -107 -99 -4 4 15 30 42 57 47 48
65 59 65 42z"/>
</g>
</svg>
